<svg width="18" height="18" viewBox="0 0 18 18" fill="none" xmlns="http://www.w3.org/2000/svg">
    <path d="M5.99998 7.49998C6.8284 7.49998 7.49998 6.8284 7.49998 5.99998C7.49998 5.17155 6.8284 4.49998 5.99998 4.49998C5.17155 4.49998 4.49998 5.17155 4.49998 5.99998C4.49998 6.8284 5.17155 7.49998 5.99998 7.49998Z" fill="#A5A7AD"/>
    <path fill-rule="evenodd" clip-rule="evenodd" d="M6.46159 2.50809e-07H11.5384C12.4859 -9.04752e-06 13.2517 -1.64397e-05 13.8721 0.050674C14.5114 0.102906 15.0752 0.213413 15.5976 0.479572C16.4255 0.901415 17.0986 1.57453 17.5204 2.40244C17.7866 2.92481 17.8971 3.48863 17.9493 4.12792C18 4.74834 18 5.51409 18 6.46159V11.5384C18 12.4859 18 13.2517 17.9493 13.8721C17.8971 14.5114 17.7866 15.0752 17.5204 15.5976C17.0986 16.4255 16.4255 17.0986 15.5976 17.5204C15.0752 17.7866 14.5114 17.8971 13.8721 17.9493C13.2517 18 12.4859 18 11.5384 18H6.46159C5.51409 18 4.74834 18 4.12792 17.9493C3.48863 17.8971 2.92481 17.7866 2.40244 17.5204C1.57453 17.0986 0.901416 16.4255 0.479573 15.5976C0.213413 15.0752 0.102907 14.5114 0.0506747 13.8721C-1.57245e-05 13.2517 -9.0479e-06 12.4859 2.50421e-07 11.5384V6.46159C-9.0479e-06 5.51409 -1.57245e-05 4.74834 0.0506747 4.12792C0.102907 3.48863 0.213413 2.92481 0.479573 2.40244C0.901416 1.57453 1.57453 0.901415 2.40244 0.479572C2.92481 0.213413 3.48863 0.102906 4.12792 0.050674C4.74834 -1.64397e-05 5.51409 -9.04752e-06 6.46159 2.50809e-07ZM4.2745 1.8447C3.74652 1.88783 3.44595 1.96807 3.21963 2.08338C2.7304 2.33265 2.33265 2.7304 2.08338 3.21963C1.96807 3.44595 1.88783 3.74652 1.8447 4.2745C1.8007 4.81298 1.8 5.50506 1.8 6.5V11.5C1.8 12.4949 1.8007 13.187 1.8447 13.7255C1.84825 13.7691 1.85207 13.8111 1.85613 13.8516L4.74902 10.9587C4.92949 10.7782 5.10117 10.6065 5.25766 10.4737C5.42824 10.3289 5.63927 10.1781 5.91232 10.0897C6.29503 9.96587 6.70717 9.96667 7.08939 10.092C7.3621 10.1814 7.57254 10.3331 7.74256 10.4785C7.89852 10.6119 8.06953 10.7843 8.24929 10.9655L9.00258 11.7247L11.7632 8.96412C11.943 8.78428 12.1141 8.61312 12.2701 8.48068C12.4402 8.33627 12.6506 8.18585 12.9227 8.09742C13.3043 7.97343 13.7154 7.97343 14.097 8.09742C14.3692 8.18585 14.5795 8.33627 14.7496 8.48068C14.9056 8.61312 15.0768 8.78429 15.2566 8.96414L16.2 9.90756V6.5C16.2 5.50506 16.1993 4.81298 16.1553 4.2745C16.1122 3.74652 16.0319 3.44595 15.9166 3.21963C15.6673 2.7304 15.2696 2.33265 14.7804 2.08338C14.5541 1.96807 14.2535 1.88783 13.7255 1.8447C13.187 1.8007 12.4949 1.8 11.5 1.8H6.5C5.50506 1.8 4.81298 1.8007 4.2745 1.8447ZM3.21963 15.9166C3.02891 15.8194 2.85209 15.6997 2.69256 15.5608L6.00071 12.2526C6.20994 12.0434 6.32902 11.9253 6.4224 11.8461C6.4519 11.821 6.47154 11.8064 6.4828 11.7985C6.49257 11.797 6.5025 11.7971 6.51227 11.7985C6.5235 11.8065 6.54309 11.8212 6.57248 11.8463C6.66556 11.926 6.78417 12.0445 6.99258 12.2546L8.36123 13.6339C8.52978 13.8038 8.75905 13.8995 8.99835 13.9C9.23765 13.9004 9.46728 13.8056 9.63649 13.6364L13.0149 10.258C13.2234 10.0495 13.342 9.93185 13.435 9.85289C13.4644 9.82797 13.4839 9.81337 13.4951 9.80552C13.5049 9.80406 13.5148 9.80406 13.5246 9.80552C13.5358 9.81337 13.5554 9.82797 13.5847 9.85289C13.6777 9.93185 13.7963 10.0495 14.0048 10.258L16.1978 12.451C16.1941 12.9665 16.1837 13.378 16.1553 13.7255C16.1122 14.2535 16.0319 14.5541 15.9166 14.7804C15.6673 15.2696 15.2696 15.6673 14.7804 15.9166C14.5541 16.0319 14.2535 16.1122 13.7255 16.1553C13.187 16.1993 12.4949 16.2 11.5 16.2H6.5C5.50505 16.2 4.81298 16.1993 4.27449 16.1553C3.74652 16.1122 3.44595 16.0319 3.21963 15.9166Z" fill="#A5A7AD"/>
</svg>
