<svg width="16" height="18" viewBox="0 0 16 18" fill="none" xmlns="http://www.w3.org/2000/svg">
    <path d="M4.57709 0C5.24573 0 5.48819 0.069619 5.73263 0.200349C5.97708 0.33108 6.16892 0.522922 6.29965 0.767366C6.43038 1.01181 6.5 1.25427 6.5 1.92291V16.0771C6.5 16.7457 6.43038 16.9882 6.29965 17.2326C6.16892 17.4771 5.97708 17.6689 5.73263 17.7997C5.48819 17.9304 5.24573 18 4.57709 18H2.42291C1.75427 18 1.51181 17.9304 1.26737 17.7997C1.02292 17.6689 0.83108 17.4771 0.700349 17.2326C0.569619 16.9882 0.5 16.7457 0.5 16.0771V1.92291C0.5 1.25427 0.569619 1.01181 0.700349 0.767366C0.83108 0.522922 1.02292 0.33108 1.26737 0.200349C1.51181 0.069619 1.75427 0 2.42291 0H4.57709ZM13.5771 0C14.2457 0 14.4882 0.069619 14.7326 0.200349C14.9771 0.33108 15.1689 0.522922 15.2997 0.767366C15.4304 1.01181 15.5 1.25427 15.5 1.92291V16.0771C15.5 16.7457 15.4304 16.9882 15.2997 17.2326C15.1689 17.4771 14.9771 17.6689 14.7326 17.7997C14.4882 17.9304 14.2457 18 13.5771 18H11.4229C10.7543 18 10.5118 17.9304 10.2674 17.7997C10.0229 17.6689 9.83108 17.4771 9.70035 17.2326C9.56962 16.9882 9.5 16.7457 9.5 16.0771V1.92291C9.5 1.25427 9.56962 1.01181 9.70035 0.767366C9.83108 0.522922 10.0229 0.33108 10.2674 0.200349C10.5118 0.069619 10.7543 0 11.4229 0H13.5771Z" fill="#B8FC75"/>
</svg>
