<svg width="17" height="18" viewBox="0 0 17 18" fill="none" xmlns="http://www.w3.org/2000/svg">
    <path d="M14.15 6.9238C15.3314 7.60526 15.9221 7.94599 16.1203 8.39084C16.2932 8.77885 16.2932 9.22194 16.1203 9.60995C15.9221 10.0548 15.3314 10.3955 14.15 11.077L4.1 16.8741C2.91861 17.5556 2.32792 17.8963 1.84321 17.8454C1.42042 17.801 1.03635 17.5795 0.786474 17.2359C0.5 16.8419 0.5 16.1605 0.5 14.7975L0.500001 3.20325C0.500001 1.84033 0.500001 1.15886 0.786475 0.764921C1.03635 0.421307 1.42042 0.199762 1.84321 0.155366C2.32792 0.104467 2.91861 0.445197 4.1 1.12666L14.15 6.9238Z" fill="#1E1E1E"/>
</svg>
