<svg width="21" height="23" viewBox="0 0 21 23" fill="none" xmlns="http://www.w3.org/2000/svg">
    <path d="M11.2071 0.292893C10.8166 -0.0976311 10.1834 -0.0976311 9.79289 0.292893L6.79289 3.29289C6.40237 3.68342 6.40237 4.31658 6.79289 4.70711L9.79289 7.70711C10.1834 8.09763 10.8166 8.09763 11.2071 7.70711C11.5976 7.31658 11.5976 6.68342 11.2071 6.29289L9.935 5.0196C10.1215 5.00661 10.3099 5 10.5 5C12.7094 5 14.708 5.89434 16.1569 7.34315C17.6057 8.79196 18.5 10.7906 18.5 13C18.5 15.2094 17.6057 17.208 16.1569 18.6569C14.708 20.1057 12.7094 21 10.5 21C8.29058 21 6.29196 20.1057 4.84315 18.6569C3.39434 17.208 2.5 15.2094 2.5 13C2.5 12.4477 2.05228 12 1.5 12C0.947715 12 0.5 12.4477 0.5 13C0.5 15.7611 1.62038 18.2625 3.42893 20.0711C5.23748 21.8796 7.73885 23 10.5 23C13.2611 23 15.7625 21.8796 17.5711 20.0711C19.3796 18.2625 20.5 15.7611 20.5 13C20.5 10.2389 19.3796 7.73748 17.5711 5.92893C15.7625 4.12038 13.2611 3 10.5 3C10.3076 3 10.097 2.99739 9.90715 3.00814L11.2071 1.70711C11.5976 1.31658 11.5976 0.683418 11.2071 0.292893Z" fill="#B8FC75"/>
</svg>
